<?xml version="1.0" encoding="UTF-8"?>
<svg id="Layer_1" data-name="Layer 1" xmlns="http://www.w3.org/2000/svg" viewBox="0 0 260 260">
  <defs>
    <style>
      .cls-1 {
        fill: #00a540;
      }
    </style>
  </defs>
  <path class="cls-1" d="m1.54,24c.85,0,1.54-.67,1.54-1.5V3h19.39c.85,0,1.54-.67,1.54-1.5S23.31,0,22.46,0H1.54C.69,0,0,.67,0,1.5v21c0,.83.69,1.5,1.54,1.5Z"/>
  <path class="cls-1" d="m236,1.54c0,.85.67,1.54,1.5,1.54h19.5v19.39c0,.85.67,1.54,1.5,1.54s1.5-.69,1.5-1.54V1.54C260,.69,259.33,0,258.5,0h-21c-.83,0-1.5.69-1.5,1.54Z"/>
  <path class="cls-1" d="m258.46,236c-.85,0-1.54.67-1.54,1.5v19.5h-19.39c-.85,0-1.54.67-1.54,1.5s.69,1.5,1.54,1.5h20.93c.85,0,1.54-.67,1.54-1.5v-21c0-.83-.69-1.5-1.54-1.5Z"/>
  <path class="cls-1" d="m24,258.46c0-.85-.67-1.54-1.5-1.54H3v-19.39c0-.85-.67-1.54-1.5-1.54S0,236.69,0,237.54v20.93c0,.85.67,1.54,1.5,1.54h21c.83,0,1.5-.69,1.5-1.54Z"/>
</svg>