<svg width="260" height="260" viewBox="0 0 260 260" fill="none" xmlns="http://www.w3.org/2000/svg">
<path d="M1.53575 24.0001C2.3849 24.0001 3.07198 23.3283 3.07198 22.4996V3.00141H22.4633C23.312 3.00141 24 2.33014 24 1.50097C24 0.67227 23.312 6.10352e-05 22.4633 6.10352e-05H1.53575C0.688027 6.10352e-05 0 0.67227 0 1.50097V22.4996C0 23.3283 0.688027 24.0001 1.53575 24.0001Z" fill="#A50064"/>
<path d="M236 1.53575C236 2.3849 236.672 3.07197 237.501 3.07197L256.999 3.07198L256.999 22.4633C256.999 23.312 257.67 24 258.499 24C259.328 24 260 23.312 260 22.4633L260 1.53575C260 0.688027 259.328 -2.93832e-08 258.499 -6.56068e-08L237.501 -9.83487e-07C236.672 -1.01971e-06 236 0.688026 236 1.53575Z" fill="#A50064"/>
<path d="M258.464 236C257.615 236 256.928 236.672 256.928 237.5L256.928 256.999L237.537 256.999C236.688 256.999 236 257.67 236 258.499C236 259.328 236.688 260 237.537 260L258.464 260C259.312 260 260 259.328 260 258.499L260 237.5C260 236.672 259.312 236 258.464 236Z" fill="#A50064"/>
<path d="M24 258.464C24 257.615 23.3283 256.928 22.4996 256.928L3.00135 256.928L3.00135 237.537C3.00135 236.688 2.33008 236 1.50091 236C0.672212 236 3.24202e-06 236.688 3.12399e-06 237.537L2.13578e-07 258.464C9.56845e-08 259.312 0.672209 260 1.50091 260L22.4996 260C23.3283 260 24 259.312 24 258.464Z" fill="#A50064"/>
</svg>
