<svg xmlns="http://www.w3.org/2000/svg" width="16" height="16" viewBox="0 0 16 16">
    <g fill="none" fill-rule="evenodd">
        <g fill="#303233">
            <g>
                <g>
                    <g>
                        <path d="M5.508 1.828c.371.367.964 1.13 1.845 2.362.393.436.268.929-.08 1.396-.081.111-.176.22-.29.341l-.188.191-.147.147-.367.367c-.067.067.392.986 1.284 1.878.891.892 1.81 1.352 1.877 1.285l.513-.514c.283-.283.433-.42.638-.555.428-.28.895-.356 1.288-.005 1.285.92 2.012 1.483 2.368 1.853.695.722.603 1.833.004 2.467-.208.22-.472.484-.783.784-1.884 1.884-5.86.737-8.906-2.312C1.516 8.463.37 4.486 2.25 2.605l.278-.282.226-.226.273-.27c.612-.602 1.774-.697 2.48.001zm-1.541.954l-.235.232-.29.29-.242.245c-1.209 1.21-.283 4.42 2.31 7.016 2.594 2.596 5.803 3.522 7.022 2.304.306-.296.556-.546.748-.75.14-.146.164-.45.004-.615-.266-.277-.918-.785-2.043-1.593-.082.066-.183.162-.339.317l-.513.514c-.873.873-2.36.129-3.771-1.284-1.413-1.415-2.157-2.9-1.284-3.774l.232-.232.281-.281c.083-.082.12-.12.165-.168.062-.064.112-.121.153-.171-.781-1.088-1.312-1.768-1.598-2.05-.148-.146-.479-.12-.6 0z"
                              transform="translate(-927 -1121) translate(0 1077) translate(927 43) translate(0 1)"/>
                    </g>
                </g>
            </g>
        </g>
    </g>
</svg>
