<svg width="24" height="24" viewBox="0 0 24 24" xmlns="http://www.w3.org/2000/svg">
    <g fill="none" fill-rule="evenodd">
        <circle fill="#FFF" cx="12" cy="12" r="11"/>
        <path d="M12 3a9 9 0 1 1 0 18 9 9 0 0 1 0-18zM7.738 7.707l-.03.031a1 1 0 0 0 0 1.414L10.554 12l-2.848 2.848a1 1 0 0 0 0 1.414l.031.03a1 1 0 0 0 1.414 0L12 13.446l2.848 2.848a1 1 0 0 0 1.414 0l.03-.031a1 1 0 0 0 0-1.414L13.446 12l2.848-2.848a1 1 0 0 0 0-1.414l-.031-.03a1 1 0 0 0-1.414 0L12 10.554 9.152 7.707a1 1 0 0 0-1.414 0z" fill="#303233"/>
    </g>
</svg>
