<svg xmlns:xlink="http://www.w3.org/1999/xlink" xmlns="http://www.w3.org/2000/svg" width="241" height="141"
     viewBox="0 0 241 141">
    <defs>
        <filter id="317vhaveza">
            <feColorMatrix in="SourceGraphic"
                           values="0 0 0 0 1.000000 0 0 0 0 0.941176 0 0 0 0 0.964706 0 0 0 1.000000 0"/>
        </filter>
        <path id="v06bt0o0hb" d="M240 0L240 140 0 140z"/>
    </defs>
    <g fill="none" fill-rule="evenodd">
        <g>
            <g>
                <g filter="url(#317vhaveza)"
                   transform="translate(-1200 -652) translate(0 80) translate(1200.393 572.485)">
                    <mask id="poa9yc8vcc" fill="#fff">
                        <use xlink:href="#v06bt0o0hb"/>
                    </mask>
                    <path fill="#FFF0F6"
                          d="M231.995 128c2.196 0 4.005 1.812 4.005 4.005 0 2.183-1.809 3.995-4.005 3.995-2.21 0-3.995-1.812-3.995-3.995 0-2.193 1.784-4.005 3.995-4.005zm-17.973 0c2.185 0 3.978 1.812 3.978 4.005 0 2.183-1.793 3.995-3.978 3.995-2.239 0-4.022-1.812-4.022-3.995 0-2.193 1.783-4.005 4.022-4.005zm-18.012 0c2.191 0 3.99 1.812 3.99 4.005 0 2.183-1.799 3.995-3.99 3.995-2.216 0-4.01-1.812-4.01-3.995 0-2.193 1.794-4.005 4.01-4.005zm-18 0c2.221 0 3.99 1.812 3.99 4.005 0 2.183-1.769 3.995-3.99 3.995-2.197 0-4.01-1.812-4.01-3.995 0-2.193 1.813-4.005 4.01-4.005zm-18.008 0c2.217 0 3.998 1.812 3.998 4.005 0 2.183-1.78 3.995-3.998 3.995-2.192 0-4.002-1.812-4.002-3.995 0-2.193 1.81-4.005 4.002-4.005zm-17.992 0c2.221 0 3.99 1.812 3.99 4.005 0 2.183-1.769 3.995-3.99 3.995-2.197 0-4.01-1.812-4.01-3.995 0-2.193 1.813-4.005 4.01-4.005zm-18.008 0c2.217 0 3.998 1.812 3.998 4.005 0 2.183-1.78 3.995-3.998 3.995-2.192 0-4.002-1.812-4.002-3.995 0-2.193 1.81-4.005 4.002-4.005zm-17.992 0c2.196 0 3.99 1.812 3.99 4.005 0 2.183-1.794 3.995-3.99 3.995-2.221 0-4.01-1.812-4.01-3.995 0-2.193 1.789-4.005 4.01-4.005zm-18.003 0c2.198 0 3.993 1.812 3.993 4.005 0 2.183-1.795 3.995-3.993 3.995-2.222 0-4.007-1.812-4.007-3.995 0-2.193 1.785-4.005 4.007-4.005zm-18 0c2.223 0 3.993 1.812 3.993 4.005 0 2.183-1.77 3.995-3.993 3.995-2.222 0-4.007-1.812-4.007-3.995 0-2.193 1.785-4.005 4.007-4.005zm-17.985 0c2.165 0 3.978 1.812 3.978 4.005 0 2.183-1.813 3.995-3.978 3.995-2.239 0-4.022-1.812-4.022-3.995 0-2.193 1.783-4.005 4.022-4.005zm-18.012 0c2.196 0 3.99 1.812 3.99 4.005 0 2.183-1.794 3.995-3.99 3.995-2.221 0-4.01-1.812-4.01-3.995 0-2.193 1.789-4.005 4.01-4.005zM16 128c2.191 0 4 1.812 4 4.005 0 2.183-1.809 3.995-4 3.995-2.21 0-4-1.812-4-3.995 0-2.193 1.79-4.005 4-4.005zm162.01-18c2.221 0 3.99 1.812 3.99 4.005 0 2.237-1.769 3.995-3.99 3.995-2.197 0-4.01-1.758-4.01-3.995 0-2.193 1.813-4.005 4.01-4.005zm-72 0c2.196 0 3.99 1.812 3.99 4.005 0 2.237-1.794 3.995-3.99 3.995-2.221 0-4.01-1.758-4.01-3.995 0-2.193 1.789-4.005 4.01-4.005zm125.985 0c2.196 0 4.005 1.812 4.005 4.005 0 2.237-1.809 3.995-4.005 3.995-2.21 0-3.995-1.758-3.995-3.995 0-2.193 1.784-4.005 3.995-4.005zm-143.988 0c2.198 0 3.993 1.812 3.993 4.005 0 2.237-1.795 3.995-3.993 3.995-2.222 0-4.007-1.758-4.007-3.995 0-2.193 1.785-4.005 4.007-4.005zm71.995 0c2.217 0 3.998 1.812 3.998 4.005 0 2.237-1.78 3.995-3.998 3.995-2.192 0-4.002-1.758-4.002-3.995 0-2.193 1.81-4.005 4.002-4.005zm-89.995 0c2.223 0 3.993 1.812 3.993 4.005 0 2.237-1.77 3.995-3.993 3.995-2.222 0-4.007-1.758-4.007-3.995 0-2.193 1.785-4.005 4.007-4.005zm144.015 0c2.185 0 3.978 1.812 3.978 4.005 0 2.237-1.793 3.995-3.978 3.995-2.239 0-4.022-1.758-4.022-3.995 0-2.193 1.783-4.005 4.022-4.005zm-162 0c2.165 0 3.978 1.812 3.978 4.005 0 2.237-1.813 3.995-3.978 3.995-2.239 0-4.022-1.758-4.022-3.995 0-2.193 1.783-4.005 4.022-4.005zm89.988 0c2.221 0 3.99 1.812 3.99 4.005 0 2.237-1.769 3.995-3.99 3.995-2.197 0-4.01-1.758-4.01-3.995 0-2.193 1.813-4.005 4.01-4.005zm-108 0c2.196 0 3.99 1.812 3.99 4.005 0 2.237-1.794 3.995-3.99 3.995-2.221 0-4.01-1.758-4.01-3.995 0-2.193 1.789-4.005 4.01-4.005zm162 0c2.191 0 3.99 1.812 3.99 4.005 0 2.237-1.799 3.995-3.99 3.995-2.216 0-4.01-1.758-4.01-3.995 0-2.193 1.794-4.005 4.01-4.005zM16 110c2.191 0 4 1.812 4 4.005 0 2.237-1.809 3.995-4 3.995-2.21 0-4-1.758-4-3.995 0-2.193 1.79-4.005 4-4.005zm108.002 0c2.217 0 3.998 1.812 3.998 4.005 0 2.237-1.78 3.995-3.998 3.995-2.192 0-4.002-1.758-4.002-3.995 0-2.193 1.81-4.005 4.002-4.005zm0-18c2.217 0 3.998 1.808 3.998 4.002 0 2.24-1.78 3.998-3.998 3.998-2.192 0-4.002-1.759-4.002-3.998 0-2.194 1.81-4.002 4.002-4.002zm90.02 0c2.185 0 3.978 1.808 3.978 4.002 0 2.24-1.793 3.998-3.978 3.998-2.239 0-4.022-1.759-4.022-3.998 0-2.194 1.783-4.002 4.022-4.002zM88.007 92C90.205 92 92 93.808 92 96.002c0 2.24-1.795 3.998-3.993 3.998C85.785 100 84 98.241 84 96.002 84 93.808 85.785 92 88.007 92zm108.003 0c2.191 0 3.99 1.808 3.99 4.002 0 2.24-1.799 3.998-3.99 3.998-2.216 0-4.01-1.759-4.01-3.998 0-2.194 1.794-4.002 4.01-4.002zm-18 0c2.221 0 3.99 1.808 3.99 4.002 0 2.24-1.769 3.998-3.99 3.998-2.197 0-4.01-1.759-4.01-3.998 0-2.194 1.813-4.002 4.01-4.002zm-72 0c2.196 0 3.99 1.808 3.99 4.002 0 2.24-1.794 3.998-3.99 3.998-2.221 0-4.01-1.759-4.01-3.998 0-2.194 1.789-4.002 4.01-4.002zm36 0c2.221 0 3.99 1.808 3.99 4.002 0 2.24-1.769 3.998-3.99 3.998-2.197 0-4.01-1.759-4.01-3.998 0-2.194 1.813-4.002 4.01-4.002zm-108 0c2.196 0 3.99 1.808 3.99 4.002 0 2.24-1.794 3.998-3.99 3.998-2.221 0-4.01-1.759-4.01-3.998C30 93.808 31.789 92 34.01 92zm35.997 0C72.23 92 74 93.808 74 96.002c0 2.24-1.77 3.998-3.993 3.998C67.785 100 66 98.241 66 96.002 66 93.808 67.785 92 70.007 92zm-17.985 0C54.187 92 56 93.808 56 96.002c0 2.24-1.813 3.998-3.978 3.998C49.783 100 48 98.241 48 96.002 48 93.808 49.783 92 52.022 92zM16 92c2.191 0 4 1.808 4 4.002 0 2.24-1.809 3.998-4 3.998-2.21 0-4-1.759-4-3.998C12 93.808 13.79 92 16 92zm215.995 0c2.196 0 4.005 1.808 4.005 4.002 0 2.24-1.809 3.998-4.005 3.998-2.21 0-3.995-1.759-3.995-3.998 0-2.194 1.784-4.002 3.995-4.002zm-71.993 0c2.217 0 3.998 1.808 3.998 4.002 0 2.24-1.78 3.998-3.998 3.998-2.192 0-4.002-1.759-4.002-3.998 0-2.194 1.81-4.002 4.002-4.002zm71.993-18c2.196 0 4.005 1.803 4.005 4.002 0 2.19-1.809 3.998-4.005 3.998-2.21 0-3.995-1.808-3.995-3.998 0-2.2 1.784-4.002 3.995-4.002zm-17.973 0c2.185 0 3.978 1.803 3.978 4.002 0 2.19-1.793 3.998-3.978 3.998-2.239 0-4.022-1.808-4.022-3.998 0-2.2 1.783-4.002 4.022-4.002zm-18.012 0c2.191 0 3.99 1.803 3.99 4.002 0 2.19-1.799 3.998-3.99 3.998-2.216 0-4.01-1.808-4.01-3.998 0-2.2 1.794-4.002 4.01-4.002zm-18 0c2.221 0 3.99 1.803 3.99 4.002 0 2.19-1.769 3.998-3.99 3.998-2.197 0-4.01-1.808-4.01-3.998 0-2.2 1.813-4.002 4.01-4.002zm-18.008 0c2.217 0 3.998 1.803 3.998 4.002 0 2.19-1.78 3.998-3.998 3.998-2.192 0-4.002-1.808-4.002-3.998 0-2.2 1.81-4.002 4.002-4.002zm-17.992 0c2.221 0 3.99 1.803 3.99 4.002 0 2.19-1.769 3.998-3.99 3.998-2.197 0-4.01-1.808-4.01-3.998 0-2.2 1.813-4.002 4.01-4.002zm-18.008 0c2.217 0 3.998 1.803 3.998 4.002 0 2.19-1.78 3.998-3.998 3.998-2.192 0-4.002-1.808-4.002-3.998 0-2.2 1.81-4.002 4.002-4.002zm-17.992 0c2.196 0 3.99 1.803 3.99 4.002 0 2.19-1.794 3.998-3.99 3.998-2.221 0-4.01-1.808-4.01-3.998 0-2.2 1.789-4.002 4.01-4.002zm-18.003 0C90.205 74 92 75.803 92 78.002 92 80.192 90.205 82 88.007 82 85.785 82 84 80.192 84 78.002c0-2.2 1.785-4.002 4.007-4.002zm-18 0C72.23 74 74 75.803 74 78.002 74 80.192 72.23 82 70.007 82 67.785 82 66 80.192 66 78.002c0-2.2 1.785-4.002 4.007-4.002zm-17.985 0C54.187 74 56 75.803 56 78.002 56 80.192 54.187 82 52.022 82 49.783 82 48 80.192 48 78.002c0-2.2 1.783-4.002 4.022-4.002zM34.01 74c2.196 0 3.99 1.803 3.99 4.002C38 80.192 36.206 82 34.01 82 31.789 82 30 80.192 30 78.002c0-2.2 1.789-4.002 4.01-4.002zM16 74c2.191 0 4 1.803 4 4.002C20 80.192 18.191 82 16 82c-2.21 0-4-1.808-4-3.998 0-2.2 1.79-4.002 4-4.002zm198.022-18c2.185 0 3.978 1.773 3.978 3.98 0 2.252-1.793 4.02-3.978 4.02-2.239 0-4.022-1.768-4.022-4.02 0-2.207 1.783-3.98 4.022-3.98zm17.973 0c2.196 0 4.005 1.773 4.005 3.98 0 2.252-1.809 4.02-4.005 4.02-2.21 0-3.995-1.768-3.995-4.02 0-2.207 1.784-3.98 3.995-3.98zm-107.993 0c2.217 0 3.998 1.773 3.998 3.98 0 2.252-1.78 4.02-3.998 4.02-2.192 0-4.002-1.768-4.002-4.02 0-2.207 1.81-3.98 4.002-3.98zM34.01 56c2.196 0 3.99 1.773 3.99 3.98 0 2.252-1.794 4.02-3.99 4.02-2.221 0-4.01-1.768-4.01-4.02 0-2.207 1.789-3.98 4.01-3.98zm125.992 0c2.217 0 3.998 1.773 3.998 3.98 0 2.252-1.78 4.02-3.998 4.02-2.192 0-4.002-1.768-4.002-4.02 0-2.207 1.81-3.98 4.002-3.98zm18.008 0c2.221 0 3.99 1.773 3.99 3.98 0 2.252-1.769 4.02-3.99 4.02-2.197 0-4.01-1.768-4.01-4.02 0-2.207 1.813-3.98 4.01-3.98zM70.007 56C72.23 56 74 57.773 74 59.98c0 2.252-1.77 4.02-3.993 4.02C67.785 64 66 62.232 66 59.98c0-2.207 1.785-3.98 4.007-3.98zm126.003 0c2.191 0 3.99 1.773 3.99 3.98 0 2.252-1.799 4.02-3.99 4.02-2.216 0-4.01-1.768-4.01-4.02 0-2.207 1.794-3.98 4.01-3.98zM16 56c2.191 0 4 1.773 4 3.98 0 2.252-1.809 4.02-4 4.02-2.21 0-4-1.768-4-4.02 0-2.207 1.79-3.98 4-3.98zm36.022 0C54.187 56 56 57.773 56 59.98c0 2.252-1.813 4.02-3.978 4.02C49.783 64 48 62.232 48 59.98c0-2.207 1.783-3.98 4.022-3.98zm53.988 0c2.196 0 3.99 1.773 3.99 3.98 0 2.252-1.794 4.02-3.99 4.02-2.221 0-4.01-1.768-4.01-4.02 0-2.207 1.789-3.98 4.01-3.98zm-18.003 0C90.205 56 92 57.773 92 59.98c0 2.252-1.795 4.02-3.993 4.02C85.785 64 84 62.232 84 59.98c0-2.207 1.785-3.98 4.007-3.98zm54.003 0c2.221 0 3.99 1.773 3.99 3.98 0 2.252-1.769 4.02-3.99 4.02-2.197 0-4.01-1.768-4.01-4.02 0-2.207 1.813-3.98 4.01-3.98zm72.012-18c2.185 0 3.978 1.807 3.978 4 0 2.237-1.793 4-3.978 4-2.239 0-4.022-1.763-4.022-4 0-2.193 1.783-4 4.022-4zm-36.012 0c2.221 0 3.99 1.807 3.99 4 0 2.237-1.769 4-3.99 4-2.197 0-4.01-1.763-4.01-4 0-2.193 1.813-4 4.01-4zm53.985 0c2.196 0 4.005 1.807 4.005 4 0 2.237-1.809 4-4.005 4-2.21 0-3.995-1.763-3.995-4 0-2.193 1.784-4 3.995-4zM34.01 38c2.196 0 3.99 1.807 3.99 4 0 2.237-1.794 4-3.99 4-2.221 0-4.01-1.763-4.01-4 0-2.193 1.789-4 4.01-4zm125.992 0c2.217 0 3.998 1.807 3.998 4 0 2.237-1.78 4-3.998 4-2.192 0-4.002-1.763-4.002-4 0-2.193 1.81-4 4.002-4zm36.008 0c2.191 0 3.99 1.807 3.99 4 0 2.237-1.799 4-3.99 4-2.216 0-4.01-1.763-4.01-4 0-2.193 1.794-4 4.01-4zM70.007 38C72.23 38 74 39.807 74 42c0 2.237-1.77 4-3.993 4C67.785 46 66 44.237 66 42c0-2.193 1.785-4 4.007-4zm18 0C90.205 38 92 39.807 92 42c0 2.237-1.795 4-3.993 4C85.785 46 84 44.237 84 42c0-2.193 1.785-4 4.007-4zM16 38c2.191 0 4 1.807 4 4 0 2.237-1.809 4-4 4-2.21 0-4-1.763-4-4 0-2.193 1.79-4 4-4zm108.002 0c2.217 0 3.998 1.807 3.998 4 0 2.237-1.78 4-3.998 4-2.192 0-4.002-1.763-4.002-4 0-2.193 1.81-4 4.002-4zm-71.98 0C54.187 38 56 39.807 56 42c0 2.237-1.813 4-3.978 4C49.783 46 48 44.237 48 42c0-2.193 1.783-4 4.022-4zm89.988 0c2.221 0 3.99 1.807 3.99 4 0 2.237-1.769 4-3.99 4-2.197 0-4.01-1.763-4.01-4 0-2.193 1.813-4 4.01-4zm-36 0c2.196 0 3.99 1.807 3.99 4 0 2.237-1.794 4-3.99 4-2.221 0-4.01-1.763-4.01-4 0-2.193 1.789-4 4.01-4zm125.985-18c2.196 0 4.005 1.767 4.005 4.005 0 2.188-1.809 3.995-4.005 3.995-2.21 0-3.995-1.807-3.995-3.995 0-2.238 1.784-4.005 3.995-4.005zM106.01 20c2.196 0 3.99 1.767 3.99 4.005 0 2.188-1.794 3.995-3.99 3.995-2.221 0-4.01-1.807-4.01-3.995 0-2.238 1.789-4.005 4.01-4.005zm108.012 0c2.185 0 3.978 1.767 3.978 4.005 0 2.188-1.793 3.995-3.978 3.995-2.239 0-4.022-1.807-4.022-3.995 0-2.238 1.783-4.005 4.022-4.005zM34.01 20c2.196 0 3.99 1.767 3.99 4.005C38 26.193 36.206 28 34.01 28 31.789 28 30 26.193 30 24.005 30 21.767 31.789 20 34.01 20zm35.997 0C72.23 20 74 21.767 74 24.005 74 26.193 72.23 28 70.007 28 67.785 28 66 26.193 66 24.005 66 21.767 67.785 20 70.007 20zm126.003 0c2.191 0 3.99 1.767 3.99 4.005 0 2.188-1.799 3.995-3.99 3.995-2.216 0-4.01-1.807-4.01-3.995 0-2.238 1.794-4.005 4.01-4.005zm-18 0c2.221 0 3.99 1.767 3.99 4.005 0 2.188-1.769 3.995-3.99 3.995-2.197 0-4.01-1.807-4.01-3.995 0-2.238 1.813-4.005 4.01-4.005zm-18.008 0c2.217 0 3.998 1.767 3.998 4.005 0 2.188-1.78 3.995-3.998 3.995-2.192 0-4.002-1.807-4.002-3.995 0-2.238 1.81-4.005 4.002-4.005zM16 20c2.191 0 4 1.767 4 4.005C20 26.193 18.191 28 16 28c-2.21 0-4-1.807-4-3.995C12 21.767 13.79 20 16 20zm72.007 0C90.205 20 92 21.767 92 24.005 92 26.193 90.205 28 88.007 28 85.785 28 84 26.193 84 24.005 84 21.767 85.785 20 88.007 20zm-35.985 0C54.187 20 56 21.767 56 24.005 56 26.193 54.187 28 52.022 28 49.783 28 48 26.193 48 24.005 48 21.767 49.783 20 52.022 20zm89.988 0c2.221 0 3.99 1.767 3.99 4.005 0 2.188-1.769 3.995-3.99 3.995-2.197 0-4.01-1.807-4.01-3.995 0-2.238 1.813-4.005 4.01-4.005zm-18.008 0c2.217 0 3.998 1.767 3.998 4.005 0 2.188-1.78 3.995-3.998 3.995-2.192 0-4.002-1.807-4.002-3.995 0-2.238 1.81-4.005 4.002-4.005zM231.995 2C234.191 2 236 3.772 236 5.956c0 2.237-1.809 4.044-4.005 4.044-2.21 0-3.995-1.807-3.995-4.044C228 3.772 229.784 2 231.995 2zm-17.973 0C216.207 2 218 3.772 218 5.956c0 2.237-1.793 4.044-3.978 4.044C211.783 10 210 8.193 210 5.956 210 3.772 211.783 2 214.022 2zM196.01 2C198.2 2 200 3.772 200 5.956c0 2.237-1.799 4.044-3.99 4.044-2.216 0-4.01-1.807-4.01-4.044C192 3.772 193.794 2 196.01 2zm-18 0C180.23 2 182 3.772 182 5.956c0 2.237-1.769 4.044-3.99 4.044-2.197 0-4.01-1.807-4.01-4.044C174 3.772 175.813 2 178.01 2zm-18.008 0C162.22 2 164 3.772 164 5.956c0 2.237-1.78 4.044-3.998 4.044C157.81 10 156 8.193 156 5.956 156 3.772 157.81 2 160.002 2zM142.01 2C144.23 2 146 3.772 146 5.956c0 2.237-1.769 4.044-3.99 4.044-2.197 0-4.01-1.807-4.01-4.044C138 3.772 139.813 2 142.01 2zm-18.008 0C126.22 2 128 3.772 128 5.956c0 2.237-1.78 4.044-3.998 4.044C121.81 10 120 8.193 120 5.956 120 3.772 121.81 2 124.002 2zM106.01 2c2.196 0 3.99 1.772 3.99 3.956 0 2.237-1.794 4.044-3.99 4.044-2.221 0-4.01-1.807-4.01-4.044C102 3.772 103.789 2 106.01 2zM88.007 2C90.205 2 92 3.772 92 5.956 92 8.193 90.205 10 88.007 10 85.785 10 84 8.193 84 5.956 84 3.772 85.785 2 88.007 2zm-18 0C72.23 2 74 3.772 74 5.956 74 8.193 72.23 10 70.007 10 67.785 10 66 8.193 66 5.956 66 3.772 67.785 2 70.007 2zM52.022 2C54.187 2 56 3.772 56 5.956 56 8.193 54.187 10 52.022 10 49.783 10 48 8.193 48 5.956 48 3.772 49.783 2 52.022 2zM34.01 2C36.206 2 38 3.772 38 5.956 38 8.193 36.206 10 34.01 10 31.789 10 30 8.193 30 5.956 30 3.772 31.789 2 34.01 2zM16 2c2.191 0 4 1.772 4 3.956C20 8.193 18.191 10 16 10c-2.21 0-4-1.807-4-4.044C12 3.772 13.79 2 16 2z"
                          mask="url(#poa9yc8vcc)"/>
                </g>
            </g>
        </g>
    </g>
</svg>
