<svg xmlns="http://www.w3.org/2000/svg" width="328" height="136" viewBox="0 0 328 136">
    <g fill="none" fill-rule="evenodd">
        <g fill="#FFF0F6">
            <g>
                <path d="M.848 131.716c1.12-.96 2.975-.942 4.08.012 1.149.984 1.135 2.544.015 3.504-1.134.972-2.954.984-4.095 0-1.12-.948-1.141-2.544 0-3.516zm28 .03c1.134-.977 2.968-.977 4.095-.011 1.113.96 1.12 2.532-.014 3.504-1.127.96-2.961.96-4.081 0-1.12-.966-1.12-2.532 0-3.492zM14.83 119.726c1.134-.972 2.996-.948 4.102.006 1.148.978 1.134 2.538 0 3.51-1.12.96-2.94.972-4.088-.006-1.113-.954-1.134-2.55-.014-3.51zm27.028.01c1.12-.96 2.968-.972 4.088-.012 1.12.966 1.113 2.55-.014 3.504-1.127.978-2.968.978-4.088.012-1.12-.96-1.12-2.532.014-3.504zm27.993-6.01c1.12-.966 2.954-.96 4.088.012 1.12.96 1.134 2.544.014 3.504-1.127.972-2.982.96-4.102 0-1.134-.972-1.134-2.544 0-3.516zm-41.011-6.008c1.12-.96 2.989-.948 4.102.006 1.148.984 1.12 2.55 0 3.51-1.134.978-2.954.984-4.102 0-1.113-.948-1.141-2.538 0-3.516zm-27.992.023c1.134-.978 2.968-.978 4.095 0 1.12.96 1.12 2.532-.007 3.504-1.12.96-2.954.96-4.08 0-1.135-.972-1.135-2.544-.008-3.504zm82.008-6.021c1.113-.954 2.961-.966 4.095.012 1.12.96 1.12 2.556.007 3.504-1.14.984-2.989.972-4.109.012-1.14-.972-1.14-2.544.007-3.528zm27.998.015c1.134-.978 2.954-.966 4.074-.006 1.148.984 1.148 2.538.014 3.51-1.134.966-2.954.978-4.102 0-1.127-.96-1.127-2.538.014-3.504zm26.998-.007c1.12-.966 2.968-.954 4.088.012 1.12.96 1.12 2.532 0 3.492-1.127.972-2.968.972-4.088.012s-1.134-2.544 0-3.516zm-81.992.01c1.12-.967 2.954-.967 4.08 0 1.114.96 1.12 2.531 0 3.491-1.14.972-2.974.972-4.087.012-1.127-.966-1.127-2.538.007-3.504zM14.854 95.73c1.12-.96 2.968-.972 4.102 0 1.12.96 1.106 2.544-.014 3.504-1.134.972-2.968.972-4.088.012-1.141-.972-1.141-2.544 0-3.516zm170.986-5.998c1.134-.972 2.975-.972 4.109 0 1.113.96 1.127 2.544-.007 3.516-1.12.96-2.975.96-4.095 0-1.134-.972-1.127-2.556-.007-3.516zm-88.988-.004c1.127-.978 2.954-.96 4.088.012 1.12.96 1.141 2.532.014 3.504-1.14.972-2.982.96-4.102 0-1.14-.972-1.14-2.544 0-3.516zm-55.009-.013c1.12-.96 2.982-.936 4.088.012 1.148.984 1.134 2.544.014 3.504-1.134.972-2.954.984-4.102 0-1.113-.948-1.14-2.544 0-3.516zm82.008.011c1.127-.96 2.96-.96 4.08 0 1.149.984 1.128 2.544.015 3.504-1.134.972-2.961.984-4.102 0-1.127-.96-1.127-2.532.007-3.504zm88.996.008c1.141-.978 2.961-.96 4.081 0 1.134.972 1.148 2.532.014 3.504-1.12.96-2.968.972-4.102 0-1.127-.96-1.113-2.544.007-3.504zM69.87 89.73c1.106-.954 2.954-.966 4.074 0 1.127.96 1.106 2.544 0 3.492-1.141.984-2.975.984-4.102.024-1.12-.966-1.12-2.532.028-3.516zm88.984-.003c1.12-.966 2.968-.948 4.088.012s1.12 2.532 0 3.498c-1.134.966-2.968.966-4.088.006-1.127-.96-1.14-2.544 0-3.516zM55.851 77.713c1.106-.954 2.982-.942 4.088.006 1.148.984 1.12 2.556.014 3.504-1.148.984-2.968.996-4.116.012-1.113-.948-1.134-2.544.014-3.522zm54.997.01c1.127-.96 2.96-.96 4.095.012 1.12.96 1.134 2.544.007 3.504-1.127.972-2.975.966-4.102 0-1.134-.966-1.134-2.544 0-3.516zm116.005.018c1.127-.978 2.96-.978 4.088-.018 1.127.978 1.127 2.55 0 3.516-1.127.966-2.975.972-4.102 0-1.127-.96-1.113-2.538.014-3.498zm-55.01-.006c1.134-.978 2.982-.966 4.102 0 1.12.96 1.12 2.532-.014 3.504-1.113.96-2.968.972-4.088.006-1.12-.96-1.12-2.55 0-3.51zm28.001 0c1.134-.979 2.961-.967 4.088.005 1.127.96 1.148 2.538.014 3.504-1.12.96-2.982.96-4.102 0-1.134-.966-1.12-2.556 0-3.51zm-54.988-.004c1.12-.966 2.954-.966 4.074 0 1.148.984 1.134 2.538.014 3.504-1.134.966-2.96.978-4.102 0-1.127-.966-1.127-2.538.014-3.504zm-115.998-.004c1.12-.96 2.954-.96 4.088.012 1.12.96 1.12 2.538 0 3.492-1.134.972-2.968.972-4.095.012-1.134-.966-1.134-2.544.007-3.516zm54.004.011c1.134-.978 2.954-.966 4.074 0 1.12.954 1.134 2.52 0 3.492s-2.968.972-4.088.012c-1.127-.96-1.127-2.532.014-3.504zm170.987-.009c1.134-.972 2.968-.948 4.088.012s1.134 2.52 0 3.492c-1.12.96-2.968.972-4.088.012-1.127-.96-1.127-2.556 0-3.516zm-41.005-10.994c1.134-.978 2.968-.978 4.102 0 1.12.96 1.134 2.538 0 3.51-1.12.966-2.982.966-4.102 0-1.134-.966-1.127-2.55 0-3.51zm-53.995.003c1.134-.978 2.968-.978 4.088-.012 1.148.984 1.127 2.544 0 3.516-1.12.96-2.954.978-4.102-.006-1.127-.954-1.113-2.538.014-3.498zm-89.012-.017c1.134-.978 2.982-.942 4.095.012 1.141.984 1.141 2.532.007 3.504-1.134.966-2.954.984-4.102 0-1.106-.948-1.134-2.544 0-3.516zm-27.97 0c1.106-.953 2.947-.965 4.081.013 1.127.96 1.113 2.544 0 3.492-1.14.984-2.975.984-4.102.024-1.134-.972-1.134-2.544.021-3.528zm88.982.003c1.12-.96 2.954-.96 4.095.012 1.12.96 1.127 2.544.007 3.504-1.134.972-2.982.96-4.102 0-1.134-.966-1.134-2.544 0-3.516zm110 .011c1.135-.978 2.962-.966 4.075 0 1.14.966 1.148 2.532.014 3.504-1.12.96-2.968.972-4.102 0-1.12-.96-1.106-2.544.014-3.504zm-55-.003c1.134-.978 2.968-.954 4.088.012 1.12.96 1.134 2.52 0 3.492-1.12.96-2.968.972-4.088.012-1.127-.96-1.127-2.556 0-3.516zm-170.99 0c1.12-.966 2.954-.96 4.074 0 1.12.96 1.134 2.544.014 3.504-1.134.972-2.982.96-4.102 0s-1.12-2.532.014-3.504zm82.003.004c1.12-.966 2.954-.966 4.074 0 1.12.96 1.12 2.532 0 3.492-1.127.972-2.968.972-4.088.012s-1.12-2.532.014-3.504zm197.999-6.012c1.12-.96 2.954-.966 4.088.012 1.12.96 1.12 2.532 0 3.492-1.148.978-2.982.984-4.102.024-1.134-.972-1.134-2.55.014-3.528zm27.997.01c1.12-.966 2.961-.978 4.081-.012 1.134.972 1.127 2.556 0 3.516-1.127.972-2.968.972-4.102 0-1.12-.96-1.12-2.532.021-3.504zm-55.005-.008c1.12-.96 2.968-.954 4.088.012 1.12.96 1.12 2.532 0 3.492-1.134.972-2.968.972-4.088.012-1.127-.96-1.134-2.544 0-3.516zm-123.01-5.99c1.133-.977 2.967-.977 4.101 0 1.12.96 1.134 2.539 0 3.517-1.12.954-2.982.954-4.102-.006-1.134-.972-1.12-2.556 0-3.51zm27.011-.001c1.127-.978 2.947-.966 4.067-.006 1.148.984 1.148 2.532.021 3.51-1.127.96-2.96.978-4.109 0-1.12-.96-1.106-2.544.021-3.504zm54.99-.006c1.134-.972 2.961-.96 4.088.012 1.127.96 1.148 2.532.014 3.504-1.12.96-2.975.96-4.102 0-1.134-.966-1.12-2.556 0-3.516zm-144.002-.014c1.12-.96 2.982-.936 4.088.018 1.148.978 1.134 2.538.014 3.498-1.134.972-2.954.984-4.102 0-1.113-.948-1.134-2.538 0-3.516zm117.004.016c1.134-.972 2.982-.96 4.102.006 1.12.954 1.12 2.526-.014 3.498-1.12.966-2.968.972-4.088.012-1.127-.96-1.127-2.556 0-3.516zm-143.99-.002c1.127-.972 2.954-.96 4.088.012 1.12.96 1.127 2.526 0 3.492-1.134.972-2.968.972-4.088.012-1.141-.966-1.141-2.544 0-3.516zm-26.991-.002c1.106-.954 2.954-.966 4.074 0 1.127.96 1.127 2.55.02 3.498-1.147.984-2.995.978-4.122.018-1.12-.966-1.12-2.538.028-3.516zm89 .01c1.12-.967 2.954-.967 4.074 0 1.12.953 1.12 2.531 0 3.491-1.134.972-2.968.972-4.088.012-1.127-.96-1.127-2.532.014-3.504zm190.987-6.003c1.12-.966 2.968-.978 4.102 0 1.12.96 1.106 2.538-.014 3.498-1.134.972-2.968.978-4.088.018-1.14-.978-1.134-2.55 0-3.516zm-26.993-.015c1.12-.96 2.968-.948 4.088.012s1.12 2.532 0 3.498c-1.148.978-2.982.978-4.102.018-1.127-.96-1.134-2.544.014-3.528zm-28 .013c1.113-.966 2.954-.966 4.074 0 1.134.966 1.134 2.544.014 3.498-1.134.978-2.975.978-4.102 0-1.127-.954-1.127-2.532.014-3.498zm-68.012-5.995c1.134-.978 2.968-.978 4.088-.012 1.141.978 1.134 2.544 0 3.516-1.12.96-2.96.978-4.102 0-1.12-.96-1.113-2.544.014-3.504zm-82.001-.02c1.12-.96 2.982-.942 4.088.012 1.14.984 1.127 2.544.014 3.504-1.141.966-2.961.984-4.102 0-1.113-.948-1.141-2.544 0-3.516zm54.997.017c1.134-.978 2.961-.966 4.088.006 1.127.96 1.148 2.538.021 3.51-1.127.954-2.982.954-4.102-.006-1.14-.966-1.127-2.556-.007-3.51zm-116.987.003c1.134-.978 2.961-.966 4.074 0 1.12.96 1.148 2.532.014 3.504-1.127.966-2.982.96-4.102 0s-1.12-2.532.014-3.504zm27.996-.009c1.127-.96 2.96-.966 4.088.012 1.127.96 1.127 2.532 0 3.492-1.127.972-2.961.972-4.088.012-1.134-.972-1.134-2.544 0-3.516zm60.998.016c1.14-.978 2.975-.978 4.095-.012 1.12.96 1.12 2.532-.014 3.504-1.12.96-2.968.972-4.088.012-1.127-.96-1.113-2.544.007-3.504zm82-.013c1.133-.972 2.967-.954 4.087.012 1.12.96 1.134 2.526 0 3.492-1.12.96-2.968.972-4.088.012-1.127-.96-1.127-2.556 0-3.516zm55.01-6.003c1.12-.966 2.96-.966 4.074 0 1.14.966 1.14 2.544.014 3.504-1.141.978-2.982.978-4.116.012-1.12-.96-1.12-2.532.028-3.516zm-27.006 0c1.12-.966 2.954-.966 4.088.012 1.12.96 1.134 2.538.014 3.504-1.134.966-2.982.96-4.102 0-1.141-.972-1.141-2.544 0-3.516zm53.997.002c1.12-.966 2.975-.966 4.102 0 1.12.96 1.106 2.544-.02 3.504-1.128.972-2.962.972-4.082.012-1.127-.96-1.14-2.544 0-3.516zM28.841 30.72c1.135-.972 2.969-.948 4.089.012 1.148.984 1.148 2.538.014 3.504-1.134.978-2.954.984-4.102 0-1.12-.954-1.141-2.538 0-3.516zm88.993.007c1.134-.978 2.996-.954 4.102 0 1.148.978 1.134 2.538 0 3.516-1.12.96-2.954.978-4.102 0-1.113-.954-1.127-2.556 0-3.516zm54.008.006c1.134-.972 2.975-.972 4.102 0 1.12.966 1.134 2.544 0 3.516-1.12.96-2.982.96-4.102 0-1.134-.972-1.12-2.556 0-3.516zm28.012 0c1.127-.972 2.954-.966 4.074 0 1.141.984 1.141 2.532.007 3.504-1.12.96-2.954.984-4.102 0-1.12-.96-1.106-2.544.021-3.504zm-109.996-.005c1.113-.96 2.954-.96 4.088.012 1.12.966 1.12 2.538 0 3.492-1.134.972-2.975.972-4.095.012-1.134-.966-1.134-2.538.007-3.516zm-33.997.006c1.12-.966 2.954-.966 4.074 0 1.12.96 1.134 2.544.014 3.504-1.134.972-2.982.96-4.102 0-1.127-.96-1.127-2.532.014-3.504zm88.999.005c1.134-.972 2.954-.96 4.074 0 1.12.96 1.134 2.526 0 3.492-1.12.96-2.968.972-4.088.012-1.127-.96-1.113-2.544.014-3.504zm108.996-6.02c1.12-.96 2.96-.96 4.088.012 1.127.96 1.134 2.544.014 3.504-1.148.984-2.996.978-4.116.012-1.134-.966-1.134-2.544.014-3.528zm28.001.016c1.12-.966 2.961-.978 4.088-.012 1.127.972 1.12 2.556 0 3.516-1.134.972-2.975.972-4.109 0-1.12-.96-1.12-2.532.021-3.504zm-55.003-.008c1.12-.96 2.961-.954 4.088.012 1.12.96 1.12 2.532 0 3.492-1.134.972-2.968.972-4.088.018-1.127-.966-1.14-2.55 0-3.522zM41.844 18.72c1.12-.966 2.968-.954 4.088.012 1.148.978 1.134 2.544.014 3.504-1.134.972-2.954.978-4.102 0-1.127-.96-1.134-2.544 0-3.516zm144.002.005c1.134-.972 2.954-.96 4.088.012 1.127.966 1.148 2.538.014 3.504-1.12.966-2.982.966-4.102 0-1.134-.966-1.127-2.556 0-3.516zm-55.005-.005c1.134-.972 2.975-.942 4.08.012 1.149.984 1.149 2.532.022 3.504-1.127.96-2.961.984-4.102 0-1.113-.948-1.127-2.556 0-3.516zm-26.998.017c1.141-.978 2.968-.978 4.102 0 1.127.96 1.127 2.532-.014 3.504-1.12.96-2.96.966-4.088.006-1.134-.972-1.12-2.55 0-3.51zm55.013.006c1.134-.978 2.968-.978 4.088-.012 1.12.96 1.12 2.532-.014 3.504-1.12.96-2.968.972-4.088.012-1.127-.966-1.113-2.544.014-3.504zm-81.997-.01c1.12-.967 2.954-.967 4.074 0 1.12.96 1.134 2.543.014 3.503-1.134.972-2.982.96-4.102 0s-1.12-2.532.014-3.504zm190.988-6.003c1.12-.966 2.968-.978 4.102 0 1.12.96 1.12 2.55 0 3.516-1.134.966-2.982.96-4.102 0-1.134-.972-1.134-2.55 0-3.516zm-26.988-.01c1.12-.96 2.968-.954 4.088.012 1.12.96 1.12 2.532 0 3.492-1.14.984-2.982.984-4.102.024-1.127-.966-1.134-2.544.014-3.528zm-28.003.009c1.12-.966 2.954-.966 4.074 0 1.141.978 1.134 2.544.014 3.504-1.134.972-2.96.978-4.102 0-1.127-.96-1.12-2.532.014-3.504zm-68.02-6.005c1.128-.978 2.99-.954 4.096 0 1.148.984 1.14 2.544 0 3.516-1.12.96-2.947.984-4.095 0-1.113-.948-1.127-2.556 0-3.516zM62.848 6.72c1.12-.966 2.968-.954 4.088.006 1.141.984 1.134 2.55.014 3.51-1.134.972-2.954.984-4.102 0-1.127-.96-1.141-2.544 0-3.516zm-33.992.006c1.12-.96 2.954-.966 4.081.012 1.141.972 1.127 2.532 0 3.492-1.127.972-2.954.984-4.08.012-1.142-.972-1.142-2.544 0-3.516zm60.996.015c1.134-.978 2.968-.978 4.088-.012 1.12.96 1.134 2.544 0 3.516-1.12.96-2.982.96-4.102 0s-1.113-2.544.014-3.504zm28-.01c1.134-.972 2.954-.96 4.088.012 1.12.96 1.134 2.526 0 3.492-1.12.96-2.968.978-4.088.012-1.134-.972-1.127-2.55 0-3.516zm54.009.009c1.134-.972 2.954-.966 4.074 0 1.12.96 1.134 2.526 0 3.492-1.12.96-2.968.972-4.088.012-1.127-.96-1.113-2.544.014-3.504zM226.865.722c1.12-.96 2.954-.966 4.067 0 1.148.984 1.141 2.544.014 3.504-1.141.984-2.968.996-4.116.012-1.12-.96-1.12-2.532.035-3.516zm26.986.008c1.12-.966 2.975-.966 4.102 0 1.12.96 1.106 2.544-.014 3.51-1.134.966-2.968.966-4.088.006-1.127-.96-1.141-2.544 0-3.516zm-54-.006c1.12-.96 2.954-.96 4.088.012 1.12.96 1.134 2.544.014 3.504-1.127.972-2.982.96-4.102 0-1.134-.972-1.134-2.544 0-3.516z"
                      transform="translate(0 -80) translate(0 80)"/>
            </g>
        </g>
    </g>
</svg>
