<svg xmlns="http://www.w3.org/2000/svg" width="276" height="200" viewBox="0 0 276 200">
    <g fill="none" fill-rule="evenodd">
        <g>
            <g>
                <g>
                    <path fill="#FFF0F6"
                          d="M197.354 0c-.003 32.878-26.773 59.519-59.796 59.519-33.075 0-59.925-26.641-59.932-59.519H0c.01 75.645 61.529 137 137.558 137C213.478 137 274.995 75.648 275 .002V0h-77.646z"
                          opacity=".5" transform="translate(-1165 -80) translate(0 80) translate(1165.049 .485)"/>
                    <path stroke="#FFD6E7" stroke-linecap="round" stroke-linejoin="round" stroke-width="1.061"
                          d="M43.344 169L60.527 182 77.71 169 94.889 182 112.072 169 129.255 182 146.438 169 163.617 182 180.8 169 197.982 182 215.165 169 232.345 182M43.344 186L60.527 199 77.71 186 94.889 199 112.072 186 129.255 199 146.438 186 163.617 199 180.8 186 197.982 199 215.165 186 232.345 199"
                          transform="translate(-1165 -80) translate(0 80) translate(1165.049 .485)"/>
                </g>
            </g>
        </g>
    </g>
</svg>
